<svg width="640" height="260" viewBox="0 0 640 260" fill="none" xmlns="http://www.w3.org/2000/svg">
  <rect width="640" height="260" rx="28" fill="#F5F0E8"/>
  <g fill="#2A1A15">
    <path d="M320 38c54 0 102 18 136 49l-16 16c-31-28-74-44-120-44-46 0-89 16-120 44l-16-16c34-31 82-49 136-49Z"/>
    <path d="M170 114c0-48 39-87 87-87h126c48 0 87 39 87 87v38H170v-38Z"/>
    <path d="M202 152h236v16c0 34-28 62-62 62H264c-34 0-62-28-62-62v-16Z"/>
    <path d="M234 116c0-22 18-40 40-40h92c22 0 40 18 40 40v30H234v-30Z"/>
    <ellipse cx="320" cy="119" rx="58" ry="31" fill="#F5F0E8"/>
    <rect x="260" y="117" width="120" height="42" rx="21" fill="#F5F0E8"/>
    <circle cx="262" cy="141" r="13" fill="#F5F0E8"/>
    <path d="M355 102h20c18 0 33 15 33 33v24h-37v-12c0-8-7-15-15-15h-48v-30h47Z" fill="#F5F0E8"/>
    <path d="M285 102h34v30h-40c-8 0-14 6-14 14v13h-31v-24c0-18 15-33 33-33h18Z" fill="#F5F0E8"/>
    <path d="M217 167 173 154v44h44v-31Zm206 0 44-13v44h-44v-31Z"/>
    <path d="M244 212h152l-15 20H259l-15-20Z"/>
    <path d="M148 191c0-17 14-31 31-31h17c17 0 31 14 31 31v25h-79v-25Zm265 0c0-17 14-31 31-31h17c17 0 31 14 31 31v25h-79v-25Z"/>
  </g>
  <text x="320" y="30" text-anchor="middle" fill="#2A1A15" font-family="Arial, sans-serif" font-size="26" font-weight="700" letter-spacing="8">
    DAVIDSON'S FAMILY BUTCHER
  </text>
  <text x="320" y="205" text-anchor="middle" fill="#F5F0E8" font-family="Arial, sans-serif" font-size="30" font-weight="700" letter-spacing="6">
    BRAEMAR
  </text>
</svg>
