<svg width="420" height="180" viewBox="0 0 420 180" fill="none" xmlns="http://www.w3.org/2000/svg">
  <rect width="420" height="180" rx="24" fill="#F5F0E8"/>
  <g fill="#2B1A14">
    <path d="M98 104c0-27 22-49 49-49h126c27 0 49 22 49 49v10H98v-10Z"/>
    <path d="M126 112h168v14H126z"/>
    <path d="M156 56c13-10 32-16 54-16 22 0 41 6 54 16l-10 10c-10-7-25-12-44-12-19 0-34 5-44 12l-10-10Z"/>
    <path d="M134 120h152v10c0 15-12 27-27 27h-98c-15 0-27-12-27-27v-10Z"/>
    <path d="M116 124 90 116v26h26v-18Zm188 0 26-8v26h-26v-18Z"/>
    <path d="M143 66c18 0 32 15 32 33v24h-64V99c0-18 14-33 32-33Zm134 0c18 0 32 15 32 33v24h-64V99c0-18 14-33 32-33Z"/>
    <path d="M201 75h28c11 0 20 9 20 20v35h-68V95c0-11 9-20 20-20Z"/>
    <ellipse cx="215" cy="95" rx="26" ry="16" fill="#F5F0E8"/>
    <rect x="188" y="94" width="56" height="24" rx="12" fill="#F5F0E8"/>
    <circle cx="191" cy="112" r="6" fill="#F5F0E8"/>
    <path d="M231 89c8 0 15 6 15 14v15h-18v-8c0-4-3-7-7-7h-20v-14h30Z"/>
    <path d="M187 89h28v14h-19c-5 0-9 4-9 9v6h-16v-15c0-8 7-14 16-14Z"/>
    <path d="M176 145h78l-9 16h-60l-9-16Z"/>
  </g>
  <g fill="#2B1A14" font-family="Arial, sans-serif" font-weight="700">
    <path d="M32 118V65h11c4 0 8 .6 11 1.9 3.2 1.3 5.8 3.1 8 5.4 2.2 2.3 3.9 4.9 5 8 1.2 3.1 1.8 6.3 1.8 9.7 0 4-.7 7.6-2.2 10.9-1.5 3.2-3.6 5.9-6.5 7.8-2.8 2-6.1 3-9.9 3H32Zm10-9h8c2.2 0 4.1-.6 5.6-1.7 1.5-1.1 2.6-2.7 3.4-4.7.8-2 1.2-4.2 1.2-6.7 0-2.6-.4-4.9-1.3-6.9-.8-2-2.1-3.5-3.7-4.6-1.6-1.1-3.5-1.6-5.7-1.6h-8v26Z"/>
    <path d="M332 118V65h15l8 31 8-31h15v53h-10V79l-10 39h-8l-10-39v39h-8Z"/>
  </g>
  <path d="M104 34c22-14 47-22 75-24M318 34c-22-14-47-22-75-24" stroke="#2B1A14" stroke-width="6" stroke-linecap="round"/>
  <path d="M66 56c9-9 19-17 31-23M354 56c-9-9-19-17-31-23" stroke="#2B1A14" stroke-width="6" stroke-linecap="round"/>
</svg>
